<?xml version="1.0" standalone="no"?>
<!DOCTYPE svg PUBLIC "-//W3C//DTD SVG 20010904//EN"
 "http://www.w3.org/TR/2001/REC-SVG-20010904/DTD/svg10.dtd">
<svg version="1.0" xmlns="http://www.w3.org/2000/svg"
 width="417.000000pt" height="345.000000pt" viewBox="0 0 417.000000 345.000000"
 preserveAspectRatio="xMidYMid meet">

<g transform="translate(0.000000,345.000000) scale(0.100000,-0.100000)"
fill="#ffffff" stroke="none">
<path d="M1704 2635 c-199 -43 -424 -200 -601 -420 -201 -250 -323 -502 -323
-669 0 -63 4 -80 20 -96 64 -64 238 39 562 332 59 54 108 96 108 93 0 -3 -42
-67 -94 -143 -140 -205 -183 -302 -141 -319 29 -10 107 29 260 132 83 56 173
115 200 131 l50 29 -22 -30 c-12 -17 -56 -68 -99 -115 -69 -77 -74 -85 -53
-88 18 -3 40 14 104 84 78 85 293 270 302 260 3 -3 -9 -44 -26 -92 -57 -158
-26 -161 197 -21 29 19 5 -18 -103 -153 -93 -117 -131 -156 -198 -205 -207
-150 -355 -293 -402 -389 -34 -69 -32 -129 3 -134 33 -5 212 179 425 435 l168
201 160 99 c223 138 249 153 249 149 0 -2 -18 -26 -40 -52 -43 -53 -80 -120
-80 -147 0 -40 80 -6 230 98 41 28 80 55 87 59 7 4 -8 -31 -32 -76 -47 -87
-55 -118 -31 -118 20 0 118 54 274 149 72 44 132 78 132 73 0 -4 -40 -51 -90
-104 -49 -53 -90 -99 -90 -102 0 -10 59 -6 65 4 11 18 396 293 488 349 73 44
51 9 -64 -102 -64 -62 -130 -132 -147 -156 -31 -42 -43 -101 -22 -101 16 0
126 58 215 112 91 57 90 56 83 63 -3 3 -62 -31 -133 -75 -188 -118 -192 -110
-27 51 64 63 132 136 150 163 32 49 41 89 23 101 -10 5 -173 -102 -351 -230
-143 -103 -144 -101 -5 68 98 119 114 145 99 159 -3 3 -40 -29 -82 -71 -58
-58 -121 -105 -253 -189 -187 -118 -225 -139 -235 -129 -13 13 90 138 243 298
51 53 93 99 93 102 0 4 -11 7 -25 7 -17 0 -53 -26 -117 -86 -109 -101 -258
-215 -357 -274 -121 -72 -113 -54 73 156 43 49 90 106 104 127 22 33 23 40 11
52 -13 13 -21 7 -68 -45 -35 -40 -95 -88 -179 -143 -208 -137 -314 -199 -303
-180 5 10 77 102 159 205 83 103 147 189 144 192 -3 3 -17 6 -31 6 -20 0 -44
-19 -98 -79 -75 -81 -251 -211 -287 -211 -25 0 -18 43 24 137 27 61 40 77 76
98 46 27 56 45 27 45 -28 0 -110 -52 -198 -124 -44 -36 -84 -66 -88 -66 -5 0
7 19 26 43 19 23 42 57 53 75 16 29 17 34 4 42 -11 8 -21 3 -38 -18 -12 -15
-39 -47 -59 -71 -20 -24 -82 -73 -137 -110 -56 -37 -150 -101 -211 -143 -60
-41 -130 -85 -154 -97 -135 -69 -42 83 369 598 190 240 196 249 183 262 -18
18 -40 -1 -146 -129 -219 -264 -606 -617 -764 -696 -89 -45 -123 -32 -123 46
0 162 225 539 480 802 174 181 334 285 474 309 111 19 128 -15 59 -120 -80
-123 -342 -357 -369 -331 -3 4 3 19 15 34 12 15 19 29 16 32 -15 15 -90 -90
-81 -114 17 -43 150 40 297 186 158 156 231 282 184 317 -23 16 -110 16 -191
-2z m26 -1479 c-165 -205 -268 -318 -281 -310 -29 18 15 122 87 205 71 82 320
294 333 283 1 -1 -61 -82 -139 -178z"/>
<path d="M2452 2094 c-33 -23 -46 -52 -31 -70 16 -19 23 -18 58 12 35 29 39
49 13 63 -14 7 -25 6 -40 -5z"/>
</g>
</svg>
